<svg version="1.1" xmlns="http://www.w3.org/2000/svg" xmlns:xlink="http://www.w3.org/1999/xlink" width="67.90014" height="88.27172" viewBox="0,0,67.90014,88.27172"><g transform="translate(-206.04993,-135.86414)"><g data-paper-data="{&quot;isPaintingLayer&quot;:true}" fill="#5ebc67" fill-rule="nonzero" stroke="none" stroke-width="1" stroke-linecap="butt" stroke-linejoin="miter" stroke-miterlimit="10" stroke-dasharray="" stroke-dashoffset="0" style="mix-blend-mode: normal"><g><path d="M273.95007,137.96586v68.30549c0,0.84068 -0.42043,1.57628 -1.15619,1.89154l-31.8479,15.7628c-0.31533,0.10509 -0.63064,0.21017 -0.94597,0.21017c-0.31533,0 -0.63066,0 -0.94599,-0.10509l-31.84789,-15.7628c-0.73576,-0.31526 -1.1562,-1.05086 -1.1562,-1.89154v-68.41057c0,-1.15593 0.94598,-2.10171 2.10217,-2.10171h63.69579c1.15619,0 2.10217,0.94576 2.10217,2.10171zM269.85083,205.01033v-64.94276h-59.59656v64.94276l29.74572,14.71195l29.74572,-14.71195z"/><path d="M221.18557,189.45769c0.52554,-1.05086 1.78684,-1.36611 2.83793,-0.84068l15.97651,8.617l15.9765,-8.617c1.05109,-0.52543 2.31239,-0.21017 2.83793,0.84068c0.52555,1.05086 0.21022,2.31188 -0.84087,2.8373l-16.60715,8.93226c-0.31533,0.10509 -0.63065,0.21017 -0.94598,0.21017c-0.21022,0 -0.31534,0 -0.42043,0c-0.10511,0 -0.31533,0 -0.42043,0c-0.31533,0 -0.63065,0 -0.94598,-0.21017l-16.60716,-8.93226c-0.94598,-0.52543 -1.36641,-1.78645 -0.84087,-2.8373z"/><path d="M221.18557,177.05761c0.52554,-1.05086 1.78684,-1.36611 2.83793,-0.84068l15.97651,8.617l15.9765,-8.51191c1.05109,-0.52543 2.31239,-0.21017 2.83793,0.84068c0.52555,1.05086 0.21022,2.31188 -0.84087,2.8373l-16.60715,8.93225c-0.31533,0.10509 -0.63065,0.21017 -0.94598,0.21017c-0.21022,0 -0.31534,0 -0.42043,0c-0.10511,0 -0.31533,0 -0.42043,0c-0.31533,0 -0.63065,0 -0.94598,-0.21017l-16.60716,-8.93225c-0.94598,-0.63052 -1.36641,-1.89154 -0.84087,-2.94239z"/><path d="M225.60013,156.77614c-0.52554,-0.6305 -0.73577,-1.47119 -0.52555,-2.20679c0.21022,-0.84068 0.84087,-1.36611 1.68174,-1.47119l7.88314,-1.15593l3.46858,-7.14581c0.31533,-0.73559 1.05109,-1.15593 1.89195,-1.15593c0.84087,0 1.57662,0.42034 1.89195,1.15593l3.46858,7.14581l7.88314,1.15593c0.73576,0.10509 1.47153,0.7356 1.68174,1.47119c0.00234,0.00935 0.00462,0.0187 0.00686,0.02805c0.00967,0.26043 0.03295,0.51739 0.06915,0.77017c-0.033,0.54913 -0.24451,1.0516 -0.60155,1.40857l-5.67587,5.56953l1.36642,7.77632c0.10511,0.84068 -0.21022,1.68136 -0.84087,2.10171c-0.63064,0.52543 -1.47153,0.63052 -2.20729,0.21017l-7.04227,-3.67799l-7.04227,3.67799c-0.31533,0.10509 -0.63066,0.21017 -0.94599,0.21017c-0.42043,0 -0.94598,-0.10508 -1.2613,-0.42034c-0.63064,-0.52543 -0.94598,-1.26103 -0.84087,-2.10171l1.36641,-7.77632zM231.59132,156.77614l3.46858,3.25764c0.52554,0.52542 0.73576,1.26103 0.63065,1.89153l-0.84087,4.72885l4.20435,-2.20679c0.63064,-0.31526 1.36642,-0.31526 1.99707,0l4.20434,2.20679l-0.84087,-4.72885c-0.10511,-0.73559 0.1051,-1.36611 0.63064,-1.89153l3.36347,-3.25764l-4.72988,-0.73559c-0.63064,-0.10509 -1.2613,-0.52543 -1.57663,-1.15595l-2.10217,-4.3085l-2.10217,4.3085c-0.31533,0.6305 -0.84087,1.05086 -1.57663,1.15595z"/></g></g></g></svg>