<svg version="1.1" xmlns="http://www.w3.org/2000/svg" xmlns:xlink="http://www.w3.org/1999/xlink" width="275.5963" height="88.27172" viewBox="0,0,275.5963,88.27172"><defs><clipPath id="clip-1"><path d="M211.28262,231.87588v-65.89133h187.14583v65.89134z" fill="none"/></clipPath><clipPath id="clip-2"><path d="M211.28262,208.87919v-42.89462h187.14583v42.89462z" fill="none"/></clipPath><clipPath id="clip-3"><path d="M211.28234,208.88147v-42.89502h187.14638v42.89502z" fill="none"/></clipPath><clipPath id="clip-4"><path d="M211.28262,231.87582v-12.87032h187.14583v12.87032z" fill="none"/></clipPath><clipPath id="clip-5"><path d="M211.28307,231.88081v-12.87054h187.14956v12.87054z" fill="none"/></clipPath></defs><g transform="translate(-122.83215,-145.07676)"><g data-paper-data="{&quot;isPaintingLayer&quot;:true}" fill-rule="nonzero" stroke="none" stroke-width="1" stroke-linecap="butt" stroke-linejoin="miter" stroke-miterlimit="10" stroke-dasharray="" stroke-dashoffset="0" style="mix-blend-mode: normal"><g fill="#5ebc67"><path d="M190.73229,147.17848v68.30549c0,0.84068 -0.42043,1.57628 -1.15619,1.89154l-31.8479,15.7628c-0.31533,0.10509 -0.63064,0.21017 -0.94597,0.21017c-0.31533,0 -0.63066,0 -0.94599,-0.10509l-31.84789,-15.7628c-0.73576,-0.31526 -1.1562,-1.05086 -1.1562,-1.89154v-68.41057c0,-1.15593 0.94598,-2.10171 2.10217,-2.10171h63.69578c1.15619,0 2.10217,0.94576 2.10217,2.10171zM186.63305,214.22295v-64.94276h-59.59655v64.94276l29.74572,14.71195l29.74572,-14.71195z"/><path d="M137.96779,198.67031c0.52554,-1.05086 1.78684,-1.36611 2.83793,-0.84068l15.97651,8.617l15.9765,-8.617c1.05109,-0.52543 2.31239,-0.21017 2.83793,0.84068c0.52554,1.05086 0.21022,2.31188 -0.84087,2.8373l-16.60715,8.93226c-0.31533,0.10509 -0.63065,0.21017 -0.94598,0.21017c-0.21022,0 -0.31534,0 -0.42043,0c-0.10511,0 -0.31533,0 -0.42043,0c-0.31533,0 -0.63065,0 -0.94598,-0.21017l-16.60716,-8.93226c-0.94598,-0.52543 -1.36641,-1.78645 -0.84087,-2.8373z"/><path d="M137.96779,186.27024c0.52554,-1.05086 1.78684,-1.36611 2.83793,-0.84068l15.97651,8.617l15.9765,-8.51191c1.05109,-0.52543 2.31239,-0.21017 2.83793,0.84068c0.52554,1.05086 0.21022,2.31188 -0.84087,2.8373l-16.60715,8.93225c-0.31533,0.10509 -0.63065,0.21017 -0.94598,0.21017c-0.21022,0 -0.31534,0 -0.42043,0c-0.10511,0 -0.31533,0 -0.42043,0c-0.31533,0 -0.63065,0 -0.94598,-0.21017l-16.60716,-8.93225c-0.94598,-0.63052 -1.36641,-1.89154 -0.84087,-2.94239z"/><path d="M142.38235,165.98876c-0.52554,-0.6305 -0.73577,-1.47119 -0.52555,-2.20679c0.21022,-0.84068 0.84087,-1.36611 1.68174,-1.47119l7.88314,-1.15593l3.46858,-7.14581c0.31533,-0.73559 1.05109,-1.15593 1.89195,-1.15593c0.84087,0 1.57662,0.42034 1.89195,1.15593l3.46858,7.14581l7.88314,1.15593c0.73576,0.10509 1.47153,0.7356 1.68174,1.47119c0.00234,0.00935 0.00462,0.0187 0.00686,0.02805c0.00967,0.26043 0.03295,0.51739 0.06915,0.77017c-0.033,0.54913 -0.24451,1.0516 -0.60155,1.40857l-5.67587,5.56953l1.36642,7.77632c0.10511,0.84068 -0.21022,1.68136 -0.84087,2.10171c-0.63064,0.52543 -1.47153,0.63052 -2.20729,0.21017l-7.04227,-3.67799l-7.04227,3.67799c-0.31533,0.10509 -0.63066,0.21017 -0.94599,0.21017c-0.42043,0 -0.94598,-0.10508 -1.2613,-0.42034c-0.63064,-0.52543 -0.94598,-1.26103 -0.84087,-2.10171l1.36641,-7.77632zM148.37354,165.98876l3.46858,3.25764c0.52554,0.52542 0.73576,1.26103 0.63065,1.89153l-0.84087,4.72885l4.20435,-2.20679c0.63064,-0.31526 1.36642,-0.31526 1.99707,0l4.20434,2.20679l-0.84087,-4.72885c-0.10511,-0.73559 0.1051,-1.36611 0.63064,-1.89153l3.36347,-3.25764l-4.72988,-0.73559c-0.63064,-0.10509 -1.2613,-0.52543 -1.57663,-1.15595l-2.10217,-4.3085l-2.10217,4.3085c-0.31533,0.6305 -0.84087,1.05086 -1.57663,1.15595z"/></g><g clip-path="url(#clip-1)"><g><g clip-path="url(#clip-2)"><g><g clip-path="url(#clip-3)"><path d="M229.63604,165.98594v0c4.86977,0 9.02339,1.00232 12.46088,3.00694c3.43749,2.00463 5.15623,4.13198 5.15623,6.38207v0c0,0.61366 -0.13096,1.13322 -0.39285,1.5587c-0.27009,0.43365 -0.59746,0.74048 -0.98214,0.92049c-0.39285,0.18819 -0.81436,0.28229 -1.26451,0.28229v0c-0.7366,0 -1.84151,-0.38048 -3.31472,-1.14142c-1.47321,-0.75276 -3.1101,-1.50959 -4.91069,-2.27053c-1.80059,-0.75276 -3.45793,-1.12913 -4.97207,-1.12913v0c-2.41442,0 -3.62163,0.98185 -3.62163,2.94556v0c0,0.61366 0.19234,1.19459 0.577,1.74279c0.39285,0.55639 1.01897,1.12913 1.87834,1.71825c0.85937,0.5973 1.69827,1.12096 2.51673,1.57098c0.81845,0.45002 1.94381,1.05141 3.3761,1.80416c1.43229,0.76094 2.63949,1.42777 3.62163,2.00053v0c3.15103,1.80007 5.36083,3.51832 6.62943,5.15475c1.2686,1.63643 1.90289,3.51832 1.90289,5.64568v0c0,8.46851 -5.70868,12.70278 -17.12604,12.70278v0c-2.25073,0 -4.42781,-0.22501 -6.53122,-0.67503c-2.11159,-0.45002 -3.9531,-1.04323 -5.52452,-1.77962c-1.5796,-0.73639 -2.97097,-1.5546 -4.17409,-2.45464c-1.21131,-0.90004 -2.12387,-1.82053 -2.73771,-2.76147c-0.61383,-0.94094 -0.92075,-1.82053 -0.92075,-2.63874v0c0,-0.90004 0.29874,-1.66915 0.8962,-2.30736c0.58928,-0.63002 1.45684,-0.94503 2.60267,-0.94503v0c0.85937,0 2.92595,0.54002 6.19975,1.62006c3.2738,1.08822 5.91329,1.63234 7.91849,1.63234v0c1.84151,0 2.76226,-0.63412 2.76226,-1.90235v0c0,-0.3682 -0.07366,-0.70775 -0.22098,-1.01868c-0.13914,-0.30274 -0.38058,-0.60958 -0.72433,-0.9205c-0.35193,-0.30274 -0.74069,-0.58911 -1.16628,-0.85912c-0.43377,-0.26182 -1.02715,-0.59729 -1.78012,-1.0064c-0.76116,-0.40911 -1.51823,-0.81822 -2.2712,-1.22733c-0.76116,-0.40911 -1.75557,-0.94095 -2.98324,-1.59552c-1.22767,-0.65457 -2.41442,-1.30914 -3.56025,-1.96371v0c-1.51413,-0.85913 -2.81137,-1.9228 -3.89172,-3.19103c-1.08854,-1.26823 -1.87834,-2.52828 -2.36941,-3.78015c-0.49107,-1.24368 -0.7366,-2.39736 -0.7366,-3.46104v0c0,-3.43651 1.5346,-6.23889 4.60378,-8.40715c3.06918,-2.16826 7.42742,-3.25241 13.07471,-3.25241zM253.88257,170.64976v0c0,-1.35005 0.5811,-2.46282 1.7433,-3.33831c1.17038,-0.88367 2.81955,-1.3255 4.94752,-1.3255v0c4.46055,0 6.69081,1.5546 6.69081,4.66382v0c0,1.71825 -0.56473,2.92512 -1.69419,3.6206c-1.12127,0.69548 -2.78682,1.04323 -4.99663,1.04323v0c-1.92336,0 -3.51933,-0.3682 -4.78792,-1.10459c-1.2686,-0.73639 -1.90289,-1.9228 -1.90289,-3.55923zM267.20282,185.92991v15.95516c0,2.45464 -0.51153,4.16062 -1.53458,5.11793c-1.02306,0.96549 -2.82365,1.44824 -5.40177,1.44824v0c-2.41442,0 -4.06359,-0.56456 -4.94752,-1.6937c-0.87574,-1.12096 -1.31361,-2.97012 -1.31361,-5.54749v0v-15.09605c0,-2.08644 0.56064,-3.76379 1.68191,-5.03201c1.12946,-1.26823 2.6354,-1.90235 4.51783,-1.90235v0c2.20981,0 3.92856,0.47866 5.15623,1.43597c1.22767,0.9655 1.84151,2.73693 1.84151,5.3143zM309.18922,203.35787v-11.10726c0,-2.291 -0.92076,-3.4365 -2.76227,-3.4365v0c-0.81845,0 -1.43228,0.47048 -1.8415,1.41142c-0.40922,0.94094 -0.61384,2.12736 -0.61384,3.55923v0c0,2.16827 -0.03274,3.96834 -0.09821,5.40022c-0.05729,1.43187 -0.18824,2.72056 -0.39285,3.86606c-0.20461,1.1455 -0.45015,2.04554 -0.7366,2.70011c-0.28646,0.65457 -0.67523,1.19459 -1.16629,1.62006c-0.49108,0.43365 -1.04352,0.72003 -1.65735,0.85912c-0.61383,0.14729 -1.39137,0.22091 -2.33258,0.22091v0c-1.43228,0 -2.59039,-0.20455 -3.47431,-0.61365c-0.87574,-0.40911 -1.49776,-0.98186 -1.86607,-1.71825c-0.36831,-0.73639 -0.55246,-1.65689 -0.55246,-2.76147v0v-11.10726c0,-2.291 -0.92075,-3.4365 -2.76227,-3.4365v0c-0.7366,0 -1.34225,0.41729 -1.81695,1.25187c-0.46652,0.84277 -0.69977,1.93917 -0.69977,3.28922v0v8.52988c0,2.45464 -0.51154,4.16062 -1.5346,5.11793c-1.02306,0.96549 -2.82364,1.44824 -5.40175,1.44824v0c-2.41442,0 -4.06359,-0.56456 -4.94752,-1.6937c-0.87574,-1.12096 -1.3136,-2.97012 -1.3136,-5.54749v0v-15.09605c0,-2.08644 0.56064,-3.76379 1.68191,-5.03201c1.12946,-1.26823 2.6354,-1.90235 4.51783,-1.90235v0c3.35564,0 5.48361,1.08413 6.38389,3.2524v0c1.55505,-1.1455 3.07736,-1.94326 4.56694,-2.39327c1.49775,-0.45002 3.24924,-0.67503 5.25444,-0.67503v0c3.02826,0 5.21762,1.30913 6.56805,3.92742v0c0.20461,-0.16365 0.40922,-0.32729 0.61383,-0.49093v0c3.15103,-2.291 7.0182,-3.43649 11.6015,-3.43649v0c2.90549,0 4.99253,1.10459 6.26113,3.31377c1.2686,2.20918 1.90289,5.91159 1.90289,11.10725v0c0,2.16827 -0.03274,3.96835 -0.09821,5.40022c-0.05729,1.43187 -0.18824,2.72055 -0.39285,3.86605c-0.20461,1.1455 -0.46242,2.04554 -0.77343,2.70011c-0.30282,0.65457 -0.73251,1.19459 -1.28906,1.62007c-0.54836,0.43365 -1.1622,0.72002 -1.84151,0.85912c-0.67113,0.14729 -1.51823,0.22091 -2.54129,0.22091v0c-1.55505,0 -2.81546,-0.20455 -3.78123,-0.61365c-0.95759,-0.40911 -1.64099,-0.98186 -2.05021,-1.71825c-0.40922,-0.73639 -0.61383,-1.65688 -0.61383,-2.76146zM345.20913,208.81945v0c-4.99254,0 -9.11343,-1.28869 -12.36266,-3.86607c-3.25743,-2.57737 -4.88613,-6.09569 -4.88613,-10.55496v0c0,-4.82746 1.60825,-8.64443 4.82475,-11.45091c3.20832,-2.79829 7.34967,-4.19744 12.42405,-4.19744v0c4.78792,0 8.29907,0.84686 10.53343,2.54056c2.22618,1.70189 3.33927,4.02562 3.33927,6.97118v0c0,0.57275 -0.06957,1.12503 -0.2087,1.65688c-0.14732,0.53185 -0.3724,1.05141 -0.67522,1.5587c-0.31101,0.51548 -0.72022,0.98595 -1.22767,1.41142c-0.51562,0.43365 -1.10082,0.82231 -1.75557,1.16596c-0.65476,0.35183 -1.43229,0.61774 -2.33258,0.79775c-0.90029,0.18819 -1.86197,0.28229 -2.88503,0.28229v0l-8.65509,0.06137c0.40922,1.30913 1.14583,2.34009 2.20981,3.09284c1.06398,0.76094 2.41442,1.14141 4.05132,1.14141v0c1.75966,0 3.56025,-0.22501 5.40177,-0.67503v0c0.77753,-0.20455 1.62871,-0.53184 2.55356,-0.98185c0.91667,-0.45002 1.5796,-0.67503 1.98883,-0.67503v0c0.69569,0 1.23995,0.20455 1.6328,0.61365c0.38466,0.40911 0.577,0.92049 0.577,1.53415v0c0,0.73639 -0.32738,1.62415 -0.98213,2.66329c-0.65476,1.04731 -1.56324,2.09054 -2.72544,3.12967c-1.17038,1.04731 -2.71724,1.93917 -4.6406,2.67556c-1.92335,0.73639 -3.98994,1.10458 -6.19975,1.10458zM341.03504,191.26876v0c2.82365,-0.04091 4.35823,-0.06137 4.60377,-0.06137v0c0.61383,0 1.06398,-0.3682 1.35044,-1.10459v0c0.20461,-0.53185 0.30692,-1.26823 0.30692,-2.20917v0c0,-2.57737 -0.77753,-3.86606 -2.33258,-3.86606v0c-0.57292,0 -1.13354,0.30683 -1.68191,0.9205c-0.55655,0.61366 -1.03943,1.48096 -1.44865,2.60191c-0.40922,1.12913 -0.67522,2.36872 -0.79799,3.71878zM384.6788,193.90749v0c0,-2.12736 -0.26599,-4.00106 -0.79799,-5.62113c-0.53199,-1.61189 -1.30952,-2.41782 -2.33258,-2.41782v0c-0.69569,0 -1.30953,0.40911 -1.84151,1.22732c-0.53199,0.81822 -0.92075,1.82052 -1.16628,3.00693c-0.24554,1.18641 -0.3683,2.45464 -0.3683,3.8047v0c0,2.08644 0.28645,3.91515 0.85938,5.48612c0.57292,1.57915 1.39137,2.36873 2.45535,2.36873c1.06398,0 1.86197,-0.7773 2.39396,-2.33191c0.53199,-1.5546 0.79799,-3.39559 0.79799,-5.52295zM381.48685,208.88082v0c-3.19194,0 -6.06471,-0.57275 -8.61826,-1.71825c-2.56174,-1.1455 -4.60787,-2.86374 -6.13836,-5.15475c-1.53868,-2.29101 -2.30802,-4.97065 -2.30802,-8.03896v0c0,-4.66382 1.59598,-8.36624 4.78793,-11.10726c3.19194,-2.74102 7.28419,-4.11153 12.27672,-4.11153c4.99254,0 9.06432,1.37051 12.21534,4.11153c3.15103,2.74102 4.72654,6.44344 4.72654,11.10726v0c0,4.62291 -1.60416,8.26397 -4.81248,10.92316c-3.2165,2.6592 -7.25964,3.98879 -12.12941,3.98879z" fill="#000000"/></g></g></g></g><g><g clip-path="url(#clip-4)"><g><g clip-path="url(#clip-5)"><path d="" fill="#000000"/><path d="" fill="#000000"/><path d="" fill="#000000"/><path d="" fill="#000000"/><path d="" fill="#000000"/><path d="" fill="#000000"/><path d="" fill="#000000"/><path d="" fill="#000000"/><path d="" fill="#000000"/><path d="" fill="#000000"/><path d="" fill="#000000"/><path d="" fill="#000000"/><path d="" fill="#000000"/><path d="" fill="#000000"/><path d="" fill="#000000"/><path d="" fill="#000000"/><path d="" fill="#000000"/><path d="" fill="#000000"/><path d="" fill="#000000"/><path d="" fill="#000000"/><path d="" fill="#000000"/><path d="" fill="#000000"/><path d="" fill="#000000"/><path d="" fill="#000000"/><path d="" fill="#000000"/><path d="" fill="#000000"/><path d="" fill="#000000"/><path d="" fill="#000000"/><path d="" fill="#000000"/><path d="" fill="#000000"/><path d="" fill="#000000"/><path d="" fill="#000000"/><path d="" fill="#000000"/><path d="" fill="#000000"/><path d="" fill="#000000"/><path d="" fill="#000000"/></g></g></g></g></g></g></g></svg>