<svg version="1.1" xmlns="http://www.w3.org/2000/svg" xmlns:xlink="http://www.w3.org/1999/xlink" width="247.96809" height="56.83551" viewBox="0,0,247.96809,56.83551"><g transform="translate(-116.01595,-139.50856)"><g data-paper-data="{&quot;isPaintingLayer&quot;:true}" fill="#000000" fill-rule="nonzero" stroke="none" stroke-width="1" stroke-linecap="butt" stroke-linejoin="miter" stroke-miterlimit="10" stroke-dasharray="" stroke-dashoffset="0" style="mix-blend-mode: normal"><path d="M140.33453,139.50856v0c6.45242,0 11.95595,1.32806 16.5106,3.98418c4.55465,2.65612 6.83198,5.47485 6.83198,8.45621v0c0,0.8131 -0.17352,1.50152 -0.52053,2.06527c-0.35787,0.57459 -0.79164,0.98113 -1.30133,1.21964c-0.52053,0.24935 -1.07902,0.37403 -1.67546,0.37403v0c-0.976,0 -2.44,-0.50413 -4.39199,-1.51237c-1.95199,-0.9974 -4.12087,-2.00021 -6.50664,-3.00845c-2.38577,-0.9974 -4.58175,-1.4961 -6.58797,-1.4961v0c-3.1991,0 -4.79865,1.30095 -4.79865,3.90286v0c0,0.8131 0.25485,1.58283 0.76453,2.30919c0.52053,0.73721 1.35013,1.4961 2.48879,2.27668c1.13866,0.79142 2.25021,1.48526 3.33465,2.08153c1.08444,0.59627 2.57555,1.39311 4.47332,2.39051c1.89777,1.00824 3.49731,1.8918 4.79864,2.65069v0c4.17509,2.38509 7.10308,4.66175 8.78396,6.83002c1.68088,2.16826 2.52132,4.66176 2.52132,7.4805v0c0,11.22074 -7.56397,16.83112 -22.69191,16.83112v0c-2.98221,0 -5.86682,-0.29814 -8.65383,-0.89441c-2.79785,-0.59627 -5.23784,-1.38227 -7.31997,-2.35799c-2.09297,-0.97571 -3.93652,-2.05984 -5.53065,-3.25239c-1.60497,-1.19254 -2.81412,-2.41218 -3.62745,-3.65893c-0.81333,-1.24675 -1.21999,-2.41219 -1.21999,-3.49632v0c0,-1.19254 0.39582,-2.21162 1.18746,-3.05724c0.78079,-0.83478 1.93031,-1.25217 3.44852,-1.25217v0c1.13866,0 3.87687,0.71553 8.21464,2.14658c4.33776,1.44189 7.83507,2.16284 10.49195,2.16284v0c2.43999,0 3.65999,-0.8402 3.65999,-2.5206v0c0,-0.48786 -0.0976,-0.93777 -0.2928,-1.34974c-0.18435,-0.40113 -0.50427,-0.80768 -0.95973,-1.21965c-0.46631,-0.40113 -0.98141,-0.78057 -1.54532,-1.13833c-0.57475,-0.34692 -1.36097,-0.79141 -2.35865,-1.33348c-1.00853,-0.54207 -2.01164,-1.08413 -3.00933,-1.6262c-1.00853,-0.54207 -2.32612,-1.24675 -3.95278,-2.11405c-1.62666,-0.8673 -3.1991,-1.73461 -4.71731,-2.60191v0c-2.00621,-1.13834 -3.72505,-2.54771 -5.15651,-4.2281c-1.44231,-1.6804 -2.48879,-3.34996 -3.13945,-5.00868c-0.65067,-1.64787 -0.97599,-3.1765 -0.97599,-4.58587v0c0,-4.55335 2.03333,-8.26649 6.09998,-11.13943c4.06665,-2.87294 9.84129,-4.30942 17.32393,-4.30942zM172.46108,145.6881v0c0,-1.78881 0.76995,-3.26323 2.30986,-4.42325c1.55075,-1.17086 3.73589,-1.75629 6.55544,-1.75629v0c5.9102,0 8.8653,2.05984 8.8653,6.17954v0c0,2.27667 -0.74827,3.87576 -2.24479,4.79727c-1.48568,0.92151 -3.69252,1.38227 -6.62051,1.38227v0c-2.54844,0 -4.66309,-0.48786 -6.34397,-1.46358c-1.68088,-0.97572 -2.52132,-2.5477 -2.52132,-4.71596zM190.11034,165.93422v21.14052c0,3.25239 -0.67777,5.5128 -2.03332,6.78123c-1.35555,1.27927 -3.74132,1.91891 -7.15731,1.91891v0c-3.1991,0 -5.38424,-0.74804 -6.55544,-2.24415c-1.16035,-1.48526 -1.74052,-3.93539 -1.74052,-7.3504v0v-20.00219c0,-2.76453 0.74284,-4.987 2.22852,-6.66739c1.49652,-1.6804 3.49189,-2.5206 5.98611,-2.5206v0c2.92799,0 5.20532,0.63422 6.83198,1.90265c1.62666,1.27928 2.43999,3.62642 2.43999,7.04143zM245.74212,189.02618v-14.71706c0,-3.03556 -1.22,-4.55335 -3.65999,-4.55335v0c-1.08444,0 -1.89777,0.62338 -2.43999,1.87013c-0.54222,1.24675 -0.81333,2.81874 -0.81333,4.71596v0c0,2.87295 -0.04338,5.25803 -0.13013,7.15526c-0.07591,1.89722 -0.24942,3.60473 -0.52053,5.12251c-0.27111,1.51778 -0.59644,2.71033 -0.97599,3.57763c-0.37956,0.8673 -0.89467,1.58283 -1.54533,2.14658c-0.65067,0.57459 -1.38266,0.95403 -2.19599,1.13833c-0.81333,0.19515 -1.84355,0.29271 -3.09065,0.29271v0c-1.89777,0 -3.43225,-0.27103 -4.60344,-0.81309c-1.16035,-0.54206 -1.98453,-1.30096 -2.47253,-2.27668c-0.488,-0.97571 -0.732,-2.19536 -0.732,-3.65893v0v-14.71706c0,-3.03556 -1.22,-4.55335 -3.65999,-4.55335v0c-0.976,0 -1.77848,0.55291 -2.40745,1.65872c-0.61813,1.11666 -0.92719,2.56939 -0.92719,4.3582v0v11.30205c0,3.25239 -0.67778,5.5128 -2.03333,6.78123c-1.35555,1.27927 -3.74132,1.91891 -7.1573,1.91891v0c-3.1991,0 -5.38424,-0.74804 -6.55544,-2.24415c-1.16035,-1.48526 -1.74052,-3.93539 -1.74052,-7.3504v0v-20.00219c0,-2.76453 0.74284,-4.987 2.22852,-6.66739c1.49652,-1.6804 3.49189,-2.5206 5.98611,-2.5206v0c4.4462,0 7.26575,1.43647 8.45863,4.30942v0c2.06044,-1.51778 4.07749,-2.57481 6.05118,-3.17108c1.98452,-0.59627 4.30523,-0.89441 6.96211,-0.89441v0c4.01243,0 6.91331,1.7346 8.70263,5.20382v0c0.27111,-0.21683 0.54222,-0.43365 0.81333,-0.65048v0c4.17509,-3.03556 9.29908,-4.55334 15.37194,-4.55334v0c3.84976,0 6.61508,1.46357 8.29596,4.39073c1.68088,2.92715 2.52132,7.83283 2.52132,14.71706v0c0,2.87295 -0.04338,5.25803 -0.13013,7.15526c-0.07591,1.89722 -0.24942,3.60473 -0.52053,5.12251c-0.27111,1.51778 -0.61271,2.71033 -1.02479,3.57763c-0.40124,0.8673 -0.97058,1.58283 -1.708,2.14658c-0.72657,0.57459 -1.53991,0.95403 -2.43999,1.13833c-0.88924,0.19515 -2.01164,0.29271 -3.36719,0.29271v0c-2.06044,0 -3.73047,-0.27103 -5.01011,-0.81309c-1.2688,-0.54206 -2.1743,-1.30096 -2.71652,-2.27668c-0.54222,-0.97571 -0.81333,-2.19536 -0.81333,-3.65893zM293.46832,196.26275v0c-6.61509,0 -12.07524,-1.70751 -16.38047,-5.12252c-4.31607,-3.41501 -6.4741,-8.07676 -6.4741,-13.98527v0c0,-6.39637 2.13093,-11.45383 6.39278,-15.1724c4.25101,-3.70773 9.73827,-5.56159 16.4618,-5.56159v0c6.34398,0 10.99623,1.12208 13.95675,3.36623c2.94968,2.25499 4.42451,5.33392 4.42451,9.23678v0c0,0.75889 -0.09218,1.49067 -0.27653,2.19536c-0.1952,0.70469 -0.49342,1.39311 -0.89466,2.06527c-0.41208,0.683 -0.9543,1.30638 -1.62666,1.87013c-0.6832,0.57459 -1.45858,1.08955 -2.32613,1.54489c-0.86755,0.46618 -1.89777,0.81851 -3.09065,1.05702c-1.19288,0.24935 -2.4671,0.37403 -3.82265,0.37403v0l-11.46796,0.08131c0.54222,1.7346 1.51822,3.10061 2.92799,4.09801c1.40977,1.00824 3.1991,1.51236 5.36798,1.51236v0c2.33155,0 4.71731,-0.29814 7.15731,-0.89441v0c1.03022,-0.27103 2.15804,-0.70468 3.38345,-1.30095c1.21458,-0.59627 2.09297,-0.89441 2.63519,-0.89441v0c0.92178,0 1.64292,0.27103 2.16345,0.81309c0.50968,0.54206 0.76453,1.21965 0.76453,2.03275v0c0,0.97571 -0.43377,2.15199 -1.30132,3.52884c-0.86755,1.38768 -2.07128,2.76995 -3.61119,4.1468c-1.55075,1.38768 -3.60034,2.56939 -6.14877,3.5451c-2.54843,0.97571 -5.28664,1.46357 -8.21463,1.46357zM287.93768,173.00817v0c3.74132,-0.0542 5.77464,-0.08131 6.09997,-0.08131v0c0.81333,0 1.40977,-0.48786 1.78933,-1.46357v0c0.27111,-0.70469 0.40667,-1.6804 0.40667,-2.92715v0c0,-3.41501 -1.03022,-5.12251 -3.09066,-5.12251v0c-0.75911,0 -1.50194,0.40655 -2.22852,1.21965c-0.73742,0.8131 -1.37724,1.96227 -1.91946,3.44753c-0.54222,1.4961 -0.89466,3.13855 -1.05733,4.92737zM345.76544,176.50448v0c0,-2.81874 -0.35244,-5.30139 -1.05733,-7.44797c-0.70488,-2.13574 -1.73511,-3.2036 -3.09066,-3.2036v0c-0.92178,0 -1.73511,0.54207 -2.43999,1.62619c-0.70488,1.08413 -1.21999,2.41218 -1.54532,3.98417c-0.32533,1.57199 -0.488,3.25239 -0.488,5.0412v0c0,2.76453 0.37955,5.18756 1.13867,7.26909c0.75911,2.09237 1.84355,3.13855 3.25332,3.13855c1.40977,0 2.4671,-1.02992 3.17199,-3.08977c0.70488,-2.05984 1.05733,-4.49914 1.05733,-7.31788zM341.53613,196.34406v0c-4.22931,0 -8.0357,-0.75889 -11.41915,-2.27668c-3.39429,-1.51778 -6.1054,-3.79445 -8.1333,-6.83002c-2.03875,-3.03557 -3.05812,-6.58609 -3.05812,-10.65158v0c0,-6.17954 2.11466,-11.08522 6.34398,-14.71706c4.22931,-3.63183 9.65152,-5.44775 16.2666,-5.44775c6.61509,0 12.01017,1.81592 16.18526,5.44775c4.17509,3.63183 6.26265,8.53752 6.26265,14.71706v0c0,6.12533 -2.1255,10.94972 -6.37651,14.47314c-4.26185,3.52342 -9.61898,5.28513 -16.0714,5.28513z"/></g></g></svg>